HIERARCHY
ROOT Hips
{
	OFFSET 0.000000 0.000000 0.000000
	CHANNELS 6 Xposition Yposition Zposition Xrotation Yrotation Zrotation
	JOINT LeftUpLeg_virtual
	{
		OFFSET 0.000000 0.000000 0.000000
		CHANNELS 3 Xrotation Yrotation Zrotation
		JOINT LeftUpLeg
		{
			OFFSET 10.205400 -3.823500 0.155100
			CHANNELS 3 Xrotation Yrotation Zrotation
			JOINT LeftLeg
			{
				OFFSET 0.708757 -12.982077 0.567790
				CHANNELS 3 Xrotation Yrotation Zrotation
				JOINT LeftFoot
				{
					OFFSET -0.708756 -10.717838 -2.184338
					CHANNELS 3 Xrotation Yrotation Zrotation
					JOINT LeftToeBase
					{
						OFFSET 0.108149 -7.191104 7.560241
						CHANNELS 3 Xrotation Yrotation Zrotation
						JOINT LeftToe_End
						{
							OFFSET 0.070230 0.081724 4.490308
							CHANNELS 3 Xrotation Yrotation Zrotation
							End Site
							{
								OFFSET 0 0 0
							}
						}
					}
				}
			}
		}
	}
	JOINT RightUpLeg_virtual
	{
		OFFSET 0.000000 0.000000 0.000000
		CHANNELS 3 Xrotation Yrotation Zrotation
		JOINT RightUpLeg
		{
			OFFSET -10.205400 -3.823500 0.005500
			CHANNELS 3 Xrotation Yrotation Zrotation
			JOINT RightLeg
			{
				OFFSET -0.708756 -12.982134 0.610632
				CHANNELS 3 Xrotation Yrotation Zrotation
				JOINT RightFoot
				{
					OFFSET 0.708754 -10.717769 -1.945823
					CHANNELS 3 Xrotation Yrotation Zrotation
					JOINT RightToeBase
					{
						OFFSET -0.108140 -7.191069 7.372968
						CHANNELS 3 Xrotation Yrotation Zrotation
						JOINT RightToe_End
						{
							OFFSET -0.070227 0.081735 4.479403
							CHANNELS 3 Xrotation Yrotation Zrotation
							End Site
							{
								OFFSET 0 0 0
							}
						}
					}
				}
			}
		}
	}
	JOINT Spine_virtual
	{
		OFFSET 0.000000 0.000000 0.000000
		CHANNELS 3 Xrotation Yrotation Zrotation
		JOINT Spine
		{
			OFFSET 0.000000 6.876099 0.125700
			CHANNELS 3 Xrotation Yrotation Zrotation
			JOINT Spine1
			{
				OFFSET 0.000000 5.730043 0.104720
				CHANNELS 3 Xrotation Yrotation Zrotation
				JOINT Spine1_split
				{
					OFFSET 0.000000 5.730043 0.104720
					CHANNELS 3 Xrotation Yrotation Zrotation
					JOINT Spine2
					{
						OFFSET 0.000000 5.730043 0.104720
						CHANNELS 3 Xrotation Yrotation Zrotation
						JOINT Neck_virtual
						{
							OFFSET 0.000000 0.000000 0.000000
							CHANNELS 3 Xrotation Yrotation Zrotation
							JOINT Neck
							{
								OFFSET 0.000000 10.314075 0.188496
								CHANNELS 3 Xrotation Yrotation Zrotation
								JOINT Head
								{
									OFFSET 0.000000 7.643700 -2.377400
									CHANNELS 3 Xrotation Yrotation Zrotation
									JOINT HeadTop_End
									{
										OFFSET 0.000000 43.788605 -13.619600
										CHANNELS 3 Xrotation Yrotation Zrotation
										End Site
										{
											OFFSET 0 0 0
										}
									}
								}
							}
						}
						JOINT LeftShoulder_virtual
						{
							OFFSET 0.000000 0.000000 0.000000
							CHANNELS 3 Xrotation Yrotation Zrotation
							JOINT LeftShoulder
							{
								OFFSET 2.196100 4.412489 0.087492
								CHANNELS 3 Xrotation Yrotation Zrotation
								JOINT LeftShoulder_split
								{
									OFFSET 2.196100 4.412489 0.087492
									CHANNELS 3 Xrotation Yrotation Zrotation
									JOINT LeftArm
									{
										OFFSET 8.771219 -2.981674 -0.026999
										CHANNELS 3 Xrotation Yrotation Zrotation
										JOINT LeftForeArm
										{
											OFFSET 8.512804 0.000000 -0.000000
											CHANNELS 3 Xrotation Yrotation Zrotation
											JOINT LeftHand
											{
												OFFSET 18.484802 0.000000 -0.000000
												CHANNELS 3 Xrotation Yrotation Zrotation
												End Site
												{
													OFFSET 0 0 0
												}
											}
										}
									}
								}
							}
						}
						JOINT RightShoulder_virtual
						{
							OFFSET 0.000000 0.000000 0.000000
							CHANNELS 3 Xrotation Yrotation Zrotation
							JOINT RightShoulder
							{
								OFFSET -2.196100 4.412496 0.070690
								CHANNELS 3 Xrotation Yrotation Zrotation
								JOINT RightShoulder_split
								{
									OFFSET -2.196100 4.412496 0.070690
									CHANNELS 3 Xrotation Yrotation Zrotation
									JOINT RightArm
									{
										OFFSET -8.771282 -2.981682 -0.094208
										CHANNELS 3 Xrotation Yrotation Zrotation
										JOINT RightForeArm
										{
											OFFSET -8.494598 0.000000 0.000000
											CHANNELS 3 Xrotation Yrotation Zrotation
											JOINT RightHand
											{
												OFFSET -18.483803 0.000000 0.000001
												CHANNELS 3 Xrotation Yrotation Zrotation
												End Site
												{
													OFFSET 0 0 0
												}
											}
										}
									}
								}
							}
						}
					}
				}
			}
		}
	}
}
MOTION
Frames: 8
Frame Time: 0.03333333
0.027560 33.245422 -2.907228 0.000000 0.000000 0.000000 1.120735 3.282353 -0.306967 -16.848798 8.281425 8.099293 32.900533 -2.630602 0.932612 -17.384951 1.709165 -5.429101 -0.000081 0.000005 -0.000002 0.000000 0.000000 0.000000 1.120735 3.282353 -0.306967 -2.400568 -6.331738 -5.351190 25.703981 -7.254078 9.483376 -23.416740 -17.288817 -0.314396 -0.285949 0.000015 0.000001 0.000000 0.000000 0.000000 1.120735 3.282353 -0.306967 19.656468 -0.922908 -1.467756 1.207870 -0.113790 0.463327 0.000000 0.000000 0.000000 0.000000 0.000000 0.000000 1.207855 -0.094919 0.464716 17.515141 1.714768 1.340048 10.787755 2.058486 2.176075 0.000000 0.000000 0.000000 1.207855 -0.094919 0.464716 12.155461 -37.694858 -0.146241 0.000000 0.000000 0.000000 9.643770 18.951524 -51.717701 0.000008 -34.841741 0.000006 0.000000 0.000000 0.000000 1.207855 -0.094919 0.464716 0.535947 -2.061214 6.265397 0.000000 0.000000 0.000000 2.514664 20.851068 34.435912 -0.000005 9.263324 -0.000005 0.000000 0.000000 0.000000 
0.041220 33.261349 -2.847389 0.000000 0.000000 0.000000 1.018121 3.204842 -0.328517 -16.452353 8.411375 8.173303 32.683073 -2.704669 0.832011 -17.476046 1.704823 -5.367470 -0.000016 -0.000003 -0.000001 0.000000 0.000000 0.000000 1.018121 3.204842 -0.328517 -1.978769 -6.229083 -5.240293 25.259064 -7.327513 9.358916 -23.263518 -17.356201 -0.235135 -0.343479 -0.000003 0.000002 0.000000 0.000000 0.000000 1.018121 3.204842 -0.328517 19.037368 -0.967656 -1.402970 1.223057 -0.119062 0.413204 0.000000 0.000000 0.000000 0.000000 0.000000 0.000000 1.222984 -0.102590 0.414475 17.491911 0.957044 1.398485 10.813754 -0.678496 3.594866 0.000000 0.000000 0.000000 1.222984 -0.102590 0.414475 11.672654 -37.520627 -0.316561 0.000000 0.000000 0.000000 11.271318 19.967074 -51.862931 -0.000004 -34.690794 0.000020 0.000000 0.000000 0.000000 1.222984 -0.102590 0.414475 0.491485 -2.548971 6.180817 0.000000 0.000000 0.000000 3.745286 20.212618 34.029461 0.000005 9.536104 -0.000006 0.000000 0.000000 0.000000 
0.049536 33.270325 -2.800928 0.000000 0.000000 0.000000 0.921618 3.157502 -0.317258 -16.113989 8.499593 8.190490 32.495025 -2.741873 0.765655 -17.534663 1.702409 -5.332203 -0.000031 0.000005 -0.000001 0.000000 0.000000 0.000000 0.921618 3.157502 -0.317258 -1.663823 -6.199341 -5.217754 25.004066 -7.355233 9.301631 -23.207542 -17.366430 -0.178771 -0.370007 -0.000004 -0.000002 0.000000 0.000000 0.000000 0.921618 3.157502 -0.317258 18.531024 -0.930405 -1.427475 1.234591 -0.113719 0.407003 0.000000 0.000000 0.000000 0.000000 0.000000 0.000000 1.234487 -0.097862 0.408096 17.433470 0.332751 1.495481 10.826389 -2.735814 4.630163 0.000000 0.000000 0.000000 1.234487 -0.097862 0.408096 11.198560 -37.286057 -0.490909 0.000000 0.000000 0.000000 12.400884 20.323684 -52.234459 0.000003 -34.431489 0.000014 0.000000 0.000000 0.000000 1.234487 -0.097862 0.408096 0.469250 -2.842984 6.172413 0.000000 0.000000 0.000000 4.088877 19.748920 34.584810 0.000007 9.610791 -0.000010 0.000000 0.000000 0.000000 
0.052519 33.270588 -2.767338 0.000000 0.000000 0.000000 0.827198 3.191021 -0.265406 -15.862153 8.529876 8.127717 32.355839 -2.767954 0.756350 -17.548342 1.699706 -5.321060 -0.000041 0.000003 -0.000001 0.000000 0.000000 0.000000 0.827198 3.191021 -0.265406 -1.446705 -6.238337 -5.278727 24.969981 -7.329280 9.296987 -23.286567 -17.375805 -0.139253 -0.353036 -0.000007 -0.000002 0.000000 0.000000 0.000000 0.827198 3.191021 -0.265406 18.132887 -0.845011 -1.519635 1.238726 -0.101847 0.428710 0.000000 0.000000 0.000000 0.000000 0.000000 0.000000 1.238573 -0.085526 0.429643 17.373493 -0.124218 1.574507 10.863296 -4.143220 5.282622 0.000000 0.000000 0.000000 1.238573 -0.085526 0.429643 10.762239 -36.958461 -0.671951 0.000000 0.000000 0.000000 12.927845 20.131033 -52.757935 0.000013 -33.986407 0.000015 0.000000 0.000000 0.000000 1.238573 -0.085526 0.429643 0.465295 -2.973854 6.249411 0.000000 0.000000 0.000000 3.518500 19.404444 36.092646 -0.000004 9.454693 0.000000 0.000000 0.000000 0.000000 
0.052033 33.264004 -2.746471 0.000000 0.000000 0.000000 0.706162 3.342657 -0.201218 -15.715493 8.508332 8.019459 32.313953 -2.841196 0.814151 -17.528651 1.694207 -5.318993 -0.000099 -0.000003 -0.000001 0.000000 0.000000 0.000000 0.706162 3.342657 -0.201218 -1.225675 -6.308613 -5.343039 25.039088 -7.285525 9.294328 -23.452447 -17.460784 -0.105396 -0.326613 -0.000004 -0.000001 0.000000 0.000000 0.000000 0.706162 3.342657 -0.201218 17.866573 -0.730694 -1.612078 1.236356 -0.086862 0.473127 0.000000 0.000000 0.000000 0.000000 0.000000 0.000000 1.236036 -0.069373 0.473914 17.326826 -0.415921 1.592087 10.924065 -4.990610 5.704515 0.000000 0.000000 0.000000 1.236036 -0.069373 0.473914 10.397777 -36.567498 -0.848120 0.000000 0.000000 0.000000 12.922666 19.518223 -53.359647 -0.000004 -33.484377 -0.000006 0.000000 0.000000 0.000000 1.236036 -0.069373 0.473914 0.479001 -2.941791 6.419172 0.000000 0.000000 0.000000 2.199134 19.178271 38.382712 -0.000005 9.062155 -0.000009 0.000000 0.000000 0.000000 
0.048907 33.254215 -2.738111 0.000000 0.000000 0.000000 0.540469 3.599692 -0.144544 -15.651691 8.457740 7.906292 32.363619 -2.987529 0.919191 -17.480647 1.683797 -5.312020 -0.000094 0.000006 0.000003 0.000000 0.000000 0.000000 0.540469 3.599692 -0.144544 -0.934136 -6.383801 -5.357276 25.106572 -7.258614 9.266174 -23.645997 -17.638945 -0.074190 -0.325020 -0.000003 -0.000000 0.000000 0.000000 0.000000 0.540469 3.599692 -0.144544 17.735510 -0.593544 -1.649933 1.230925 -0.069935 0.529957 0.000000 0.000000 0.000000 0.000000 0.000000 0.000000 1.230341 -0.051078 0.530588 17.287282 -0.580043 1.570039 10.979918 -5.415788 6.001310 0.000000 0.000000 0.000000 1.230341 -0.051078 0.530588 10.150754 -36.198001 -0.993314 0.000000 0.000000 0.000000 12.532735 18.601609 -54.023088 -0.000001 -33.136960 -0.000000 0.000000 0.000000 0.000000 1.230341 -0.051078 0.530588 0.516418 -2.702344 6.679727 0.000000 0.000000 0.000000 0.336646 19.071777 41.236953 0.000001 8.465357 -0.000004 0.000000 0.000000 0.000000 
0.041964 33.244759 -2.738821 0.000000 0.000000 0.000000 0.358963 3.903321 -0.080003 -15.619157 8.399551 7.788618 32.409562 -3.168854 1.031736 -17.383943 1.668038 -5.300087 -0.000021 -0.000002 0.000002 0.000000 0.000000 0.000000 0.358963 3.903321 -0.080003 -0.623688 -6.462369 -5.347945 25.180239 -7.247591 9.227100 -23.855103 -17.861216 -0.053502 -0.340860 0.000026 0.000002 0.000000 0.000000 0.000000 0.358963 3.903321 -0.080003 17.666481 -0.411887 -1.653007 1.226265 -0.047549 0.593144 0.000000 0.000000 0.000000 0.000000 0.000000 0.000000 1.225309 -0.027345 0.593559 17.250082 -0.666877 1.568160 11.006933 -5.582830 6.162768 0.000000 0.000000 0.000000 1.225309 -0.027345 0.593559 10.006927 -35.873786 -1.108470 0.000000 0.000000 0.000000 11.868465 17.413685 -54.781406 0.000001 -33.075167 0.000003 0.000000 0.000000 0.000000 1.225309 -0.027345 0.593559 0.592317 -2.189749 7.025319 0.000000 0.000000 0.000000 -1.897287 19.017900 44.465655 -0.000007 7.763448 0.000011 0.000000 0.000000 0.000000 
0.030909 33.238052 -2.741585 0.000000 0.000000 0.000000 0.196908 4.184965 0.008645 -15.560803 8.351849 7.659228 32.363369 -3.333270 1.119515 -17.235508 1.649493 -5.290931 -0.000008 0.000002 0.000000 0.000000 0.000000 0.000000 0.196908 4.184965 0.008645 -0.364239 -6.527595 -5.347590 25.291127 -7.235036 9.185704 -24.080624 -18.088209 -0.047921 -0.336057 0.000021 -0.000002 0.000000 0.000000 0.000000 0.196908 4.184965 0.008645 17.561226 -0.147214 -1.671904 1.221959 -0.014048 0.668430 0.000000 0.000000 0.000000 0.000000 0.000000 0.000000 1.220535 0.007726 0.668493 17.218383 -0.713415 1.617144 11.001531 -5.623590 6.168023 0.000000 0.000000 0.000000 1.220535 0.007726 0.668493 9.885558 -35.518664 -1.229872 0.000000 0.000000 0.000000 10.892661 15.886030 -55.637130 0.000019 -33.100586 0.000012 0.000000 0.000000 0.000000 1.220535 0.007726 0.668493 0.727506 -1.358074 7.440833 0.000000 0.000000 0.000000 -4.313108 18.935994 47.898153 0.000008 7.093891 -0.000009 0.000000 0.000000 0.000000 
